<svg xmlns="http://www.w3.org/2000/svg" version="1.1" xmlns:xlink="http://www.w3.org/1999/xlink" xmlns:svgjs="http://svgjs.dev/svgjs" width="128" height="128" viewBox="0 0 128 128"><g transform="matrix(0.8046875,0,0,0.8046875,12.333870967741937,12.333870967741937)"><svg viewBox="0 0 155 155" data-background-color="#001f3f" preserveAspectRatio="xMidYMid meet" height="128" width="128" xmlns="http://www.w3.org/2000/svg" xmlns:xlink="http://www.w3.org/1999/xlink"><g id="tight-bounds" transform="matrix(1,0,0,1,0.25,0.25)"><svg viewBox="0 0 154.5 154.5" height="154.5" width="154.5"><g><svg></svg></g><g><svg viewBox="0 0 154.5 154.5" height="154.5" width="154.5"><mask id="fe9b4e99-a190-44af-8df3-0aa82fce8f29"><rect width="250" height="250" fill="white"></rect><g transform="matrix(1,0,0,1,57.241772748102704,43.83165)"><svg viewBox="0 0 40.016454503794584 66.8367" height="66.8367" width="40.016454503794584"><g><svg viewBox="0 0 40.016454503794584 66.8367" height="66.8367" width="40.016454503794584"><g><svg viewBox="0 0 40.016454503794584 66.8367" height="66.8367" width="40.016454503794584"><g id="SvgjsG1160"><svg viewBox="0 0 40.016454503794584 66.8367" height="66.8367" width="40.016454503794584" id="SvgjsSvg1159"><g><svg viewBox="0 0 40.016454503794584 66.8367" height="66.8367" width="40.016454503794584"><g transform="matrix(1,0,0,1,0,0)"><svg width="40.016454503794584" viewBox="-3.71 -36.67 25.12 41.28" height="66.8367" data-palette-color="url(#a462f438-4c76-4af6-9536-1396779c4141)"><path d="M10.94-10.6L10.94-32.59Q12.45-32.47 13.13-32.47L13.13-32.47 15.04-32.47Q16.24-32.47 17.41-32.67L17.41-32.67 17.41-10.79Q17.41-5.42 14.55-2.34L14.55-2.34Q11.84 0.61 7.23 0.61L7.23 0.61Q4.05 0.61 1.9-0.66L1.9-0.66Q1.1-1.12 0.29-1.78L0.29-1.78 0.29-8.84 0.46-8.89Q1.49-7.28 2.87-6.25 4.25-5.22 6.3-5.22L6.3-5.22Q10.94-5.22 10.94-10.6L10.94-10.6Z" opacity="1" transform="matrix(1,0,0,1,0,0)" fill="black" class="wordmark-text-0" id="SvgjsPath1158" stroke-width="7" stroke="black" stroke-linejoin="round"></path></svg></g></svg></g></svg></g></svg></g></svg></g></svg></g></mask><g transform="matrix(1,0,0,1,57.241772748102704,43.83165)"><svg viewBox="0 0 40.016454503794584 66.8367" height="66.8367" width="40.016454503794584"><g><svg viewBox="0 0 40.016454503794584 66.8367" height="66.8367" width="40.016454503794584"><g><svg viewBox="0 0 40.016454503794584 66.8367" height="66.8367" width="40.016454503794584"><g id="textblocktransform"><svg viewBox="0 0 40.016454503794584 66.8367" height="66.8367" width="40.016454503794584" id="textblock"><g><svg viewBox="0 0 40.016454503794584 66.8367" height="66.8367" width="40.016454503794584"><g transform="matrix(1,0,0,1,0,0)"><svg width="40.016454503794584" viewBox="-3.71 -36.67 25.12 41.28" height="66.8367" data-palette-color="url(#a462f438-4c76-4af6-9536-1396779c4141)"></svg></g></svg></g></svg></g></svg></g></svg></g></svg></g><g mask="url(#fe9b4e99-a190-44af-8df3-0aa82fce8f29)"><g transform="matrix(1.7302368765414138, 0, 0, 1.7302368765414138, 1, 3.475706778594656)"><svg xmlns="http://www.w3.org/2000/svg" xmlns:xlink="http://www.w3.org/1999/xlink" version="1.1" x="0" y="0" viewBox="6.10837660115926 6.86325504427348 88.13822088038815 85.27652395072454" enable-background="new 0 0 100 100" xml:space="preserve" height="85.27652395072454" width="88.13822088038815" class="icon-none" data-fill-palette-color="accent" id="none"></svg></g></g></svg></g><defs></defs><mask id="5816f5ba-0d26-4977-9e4b-e790f5cc5487"><g id="SvgjsG1170"><svg viewBox="0 0 154.5 154.5" height="154.5" width="154.5"><g><svg></svg></g><g><svg viewBox="0 0 154.5 154.5" height="154.5" width="154.5"><mask id="SvgjsMask1169"><g transform="matrix(1,0,0,1,57.241772748102704,43.83165)"><svg viewBox="0 0 40.016454503794584 66.8367" height="66.8367" width="40.016454503794584"><g><svg viewBox="0 0 40.016454503794584 66.8367" height="66.8367" width="40.016454503794584"><g><svg viewBox="0 0 40.016454503794584 66.8367" height="66.8367" width="40.016454503794584"><g id="SvgjsG1168"><svg viewBox="0 0 40.016454503794584 66.8367" height="66.8367" width="40.016454503794584" id="SvgjsSvg1167"><g><svg viewBox="0 0 40.016454503794584 66.8367" height="66.8367" width="40.016454503794584"><g transform="matrix(1,0,0,1,0,0)"><svg width="40.016454503794584" viewBox="-3.71 -36.67 25.12 41.28" height="66.8367" data-palette-color="url(#a462f438-4c76-4af6-9536-1396779c4141)"></svg></g></svg></g></svg></g></svg></g></svg></g></svg></g></mask><g transform="matrix(1,0,0,1,57.241772748102704,43.83165)"><svg viewBox="0 0 40.016454503794584 66.8367" height="66.8367" width="40.016454503794584"><g><svg viewBox="0 0 40.016454503794584 66.8367" height="66.8367" width="40.016454503794584"><g><svg viewBox="0 0 40.016454503794584 66.8367" height="66.8367" width="40.016454503794584"><g id="SvgjsG1165"><svg viewBox="0 0 40.016454503794584 66.8367" height="66.8367" width="40.016454503794584" id="SvgjsSvg1164"><g><svg viewBox="0 0 40.016454503794584 66.8367" height="66.8367" width="40.016454503794584"><g transform="matrix(1,0,0,1,0,0)"><svg width="40.016454503794584" viewBox="-3.71 -36.67 25.12 41.28" height="66.8367" data-palette-color="url(#a462f438-4c76-4af6-9536-1396779c4141)"><path d="M10.94-10.6L10.94-32.59Q12.45-32.47 13.13-32.47L13.13-32.47 15.04-32.47Q16.24-32.47 17.41-32.67L17.41-32.67 17.41-10.79Q17.41-5.42 14.55-2.34L14.55-2.34Q11.84 0.61 7.23 0.61L7.23 0.61Q4.05 0.61 1.9-0.66L1.9-0.66Q1.1-1.12 0.29-1.78L0.29-1.78 0.29-8.84 0.46-8.89Q1.49-7.28 2.87-6.25 4.25-5.22 6.3-5.22L6.3-5.22Q10.94-5.22 10.94-10.6L10.94-10.6Z" opacity="1" transform="matrix(1,0,0,1,0,0)" fill="white" class="wordmark-text-0" id="SvgjsPath1163"></path></svg></g></svg></g></svg></g></svg></g></svg></g></svg></g><g mask="url(#fe9b4e99-a190-44af-8df3-0aa82fce8f29)"><g transform="matrix(1.7302368765414138, 0, 0, 1.7302368765414138, 1, 3.475706778594656)"><svg xmlns="http://www.w3.org/2000/svg" xmlns:xlink="http://www.w3.org/1999/xlink" version="1.1" x="0" y="0" viewBox="6.10837660115926 6.86325504427348 88.13822088038815 85.27652395072454" enable-background="new 0 0 100 100" xml:space="preserve" height="85.27652395072454" width="88.13822088038815" class="icon-none" data-fill-palette-color="accent" id="SvgjsSvg1162"></svg></g></g></svg></g><defs><mask></mask></defs></svg></g></mask><linearGradient x1="0" x2="1" y1="0.5" y2="0.5" id="a462f438-4c76-4af6-9536-1396779c4141"><stop stop-color="#f00b51" offset="0"></stop><stop stop-color="#730062" offset="1"></stop></linearGradient><rect width="154.5" height="154.5" fill="url(#a462f438-4c76-4af6-9536-1396779c4141)" mask="url(#5816f5ba-0d26-4977-9e4b-e790f5cc5487)" data-fill-palette-color="primary"></rect><mask id="9abd9b64-27d3-4a87-8029-00efe09a28fa"><g id="SvgjsG1203"><svg viewBox="0 0 154.5 154.5" height="154.5" width="154.5"><g><svg></svg></g><g><svg viewBox="0 0 154.5 154.5" height="154.5" width="154.5"><mask id="SvgjsMask1202"><g transform="matrix(1,0,0,1,57.241772748102704,43.83165)"><svg viewBox="0 0 40.016454503794584 66.8367" height="66.8367" width="40.016454503794584"><g><svg viewBox="0 0 40.016454503794584 66.8367" height="66.8367" width="40.016454503794584"><g><svg viewBox="0 0 40.016454503794584 66.8367" height="66.8367" width="40.016454503794584"><g id="SvgjsG1201"><svg viewBox="0 0 40.016454503794584 66.8367" height="66.8367" width="40.016454503794584" id="SvgjsSvg1200"><g><svg viewBox="0 0 40.016454503794584 66.8367" height="66.8367" width="40.016454503794584"><g transform="matrix(1,0,0,1,0,0)"><svg width="40.016454503794584" viewBox="-3.71 -36.67 25.12 41.28" height="66.8367" data-palette-color="url(#a462f438-4c76-4af6-9536-1396779c4141)"></svg></g></svg></g></svg></g></svg></g></svg></g></svg></g></mask><g transform="matrix(1,0,0,1,57.241772748102704,43.83165)"><svg viewBox="0 0 40.016454503794584 66.8367" height="66.8367" width="40.016454503794584"><g><svg viewBox="0 0 40.016454503794584 66.8367" height="66.8367" width="40.016454503794584"><g><svg viewBox="0 0 40.016454503794584 66.8367" height="66.8367" width="40.016454503794584"><g id="SvgjsG1198"><svg viewBox="0 0 40.016454503794584 66.8367" height="66.8367" width="40.016454503794584" id="SvgjsSvg1197"><g><svg viewBox="0 0 40.016454503794584 66.8367" height="66.8367" width="40.016454503794584"><g transform="matrix(1,0,0,1,0,0)"><svg width="40.016454503794584" viewBox="-3.71 -36.67 25.12 41.28" height="66.8367" data-palette-color="url(#a462f438-4c76-4af6-9536-1396779c4141)"></svg></g></svg></g></svg></g></svg></g></svg></g></svg></g><g mask="url(#fe9b4e99-a190-44af-8df3-0aa82fce8f29)"><g transform="matrix(1.7302368765414138, 0, 0, 1.7302368765414138, 1, 3.475706778594656)"><svg xmlns="http://www.w3.org/2000/svg" xmlns:xlink="http://www.w3.org/1999/xlink" version="1.1" x="0" y="0" viewBox="6.10837660115926 6.86325504427348 88.13822088038815 85.27652395072454" enable-background="new 0 0 100 100" xml:space="preserve" height="85.27652395072454" width="88.13822088038815" class="icon-none" data-fill-palette-color="accent" id="SvgjsSvg1196"><g fill="white"><path d="M90.012 8.518L89.799 8.16c0.754-0.475 0.68-0.716 0.68-0.716s-0.371-1.008-1.446-0.368c-1.07 0.645-0.359 1.449-0.359 1.449s0.179 0.177 0.943-0.256l0.198 0.336c-0.08 0.042-0.977 0.521-2.272 1.21l-0.194-0.33c0.752-0.474 0.68-0.716 0.68-0.716s-0.373-1.007-1.449-0.368c-1.07 0.646-0.357 1.449-0.357 1.449s0.176 0.179 0.941-0.255l0.193 0.321c-0.656 0.35-1.4 0.745-2.185 1.163l-0.223-0.371c0.754-0.475 0.682-0.717 0.682-0.717s-0.373-1.007-1.448-0.368c-1.07 0.645-0.359 1.449-0.359 1.449S84 11.25 84.766 10.817l0.217 0.364c-0.719 0.382-1.465 0.78-2.203 1.174l-0.191-0.321c0.752-0.476 0.68-0.717 0.68-0.717s-0.373-1.008-1.447-0.369c-1.071 0.646-0.36 1.449-0.36 1.449s0.181 0.179 0.942-0.255l0.188 0.313c-0.772 0.412-1.526 0.814-2.229 1.188l-0.184-0.309c0.756-0.474 0.682-0.717 0.682-0.717s-0.373-1.007-1.446-0.367c-1.07 0.645-0.36 1.449-0.36 1.449s0.178 0.177 0.944-0.256l0.178 0.3c-0.889 0.473-1.668 0.891-2.25 1.203l-0.163-0.276c0.752-0.474 0.68-0.716 0.68-0.716s-0.371-1.008-1.447-0.368c-1.072 0.646-0.361 1.449-0.361 1.449s0.178 0.179 0.945-0.256l0.158 0.27c-0.328 0.176-0.58 0.313-0.728 0.393-1.452 0.796-1.834 1.106-1.557 1.833 0.276 0.726 0.006 1.458 0.004 1.459-0.019 0.017-0.039 0.038-0.067 0.065-0.412 0.398-1.847 1.791-2.601 2.522-1.916 1.858-3.83 3.713-5.744 5.57-2.426 2.354-4.854 4.708-7.28 7.063-2.482 2.406-4.964 4.812-7.443 7.219-2.711 2.632-5.445 5.242-8.146 7.884-0.792 0.777-1.509 1.578-2.731 1.3-1.091-0.248-1.995-1.252-2.408-2.262-0.864-2.111-0.087-4.4 1.277-6.1 0.654-0.814 2.151-2.124 1.152-3.208-1.601-1.735-4.646 0.403-5.986 1.482-3.238 2.61-4.645 6.029-6.514 9.59-0.941 1.793-2.085 3.495-3.719 4.729-1.622 1.227-3.445 1.68-5.325 2.33-1.157 0.4-2.299 0.843-3.415 1.35-4.167 1.893-8.674 4.944-10.038 9.568-0.666 2.254-0.365 4.602 0.518 6.752 0.452 1.102 1.004 2.158 1.633 3.169 2.504 4.021 6.03 7.591 9.594 10.687 1.744 1.516 3.716 2.902 5.998 3.433 2.748 0.64 5.819 0.075 8.257-1.304 4.857-2.748 7.449-11.631 7.449-11.631 0.331-1.062 0.659-2.125 1.084-3.151 0.761-1.835 1.89-3.381 3.572-4.47 0.83-0.536 1.724-0.965 2.616-1.385 1.091-0.513 2.185-0.951 3.218-1.578 1.552-0.942 2.993-2.17 3.803-3.828 0.233-0.481 0.535-1.123 0.554-1.68 0.024-0.802-0.316-1.828-1.226-1.978-0.925-0.151-1.677 0.542-2.418 0.978-0.938 0.551-1.959 1.016-3.05 1.148-0.927 0.113-1.769-0.264-2.491-0.821-0.949-0.733-2.045-2.18-2.075-3.456-0.002-0.117-0.037-0.197 0.058-0.296 0.031-0.032 31.75-32.822 34.772-35.844 3.025-3.025 5.549-1.503 5.549-1.503 1.695-1.659 3.891-5.41 4.787-6.793 0.9-1.382 2.18 0.242 3.732-0.587 1.557-0.83 2.594-3.111 1.16-4.685C92.367 7.702 90.578 8.284 90.012 8.518zM39.562 52.711c0.634 2.104 1.523 4.114 2.426 6.113 0.977 2.164 1.793 4.693 4.342 5.422 0.582 0.165 1.287 0.279 1.893 0.234 1.5-0.107 2.794-0.832 4.039-1.621 0.273-0.174 0.856-0.709 1.129-0.312 0.272 0.395-0.068 1.227-0.246 1.584-0.412 0.834-1.125 1.508-1.836 2.09-2.394 1.959-5.368 2.723-7.919 4.389-1.292 0.844-2.149 2.062-2.807 3.438-1.059 2.212-1.905 4.525-2.801 6.807-0.133 0.34-0.267 0.681-0.402 1.021-0.433 1.096-0.893 2.146-1.466 3.178-0.479 0.862-1.409 2.461-2.663 2.19-0.46-0.101-0.777-0.562-0.967-0.962-0.458-0.963-0.432-2.133-0.441-3.174-0.011-1.269-0.348-2.601-0.88-3.748-0.471-1.016-1.133-1.898-1.878-2.717-0.734-0.809-1.549-1.554-2.335-2.301-1.191-1.132-2.299-2.355-3.537-3.438-0.816-0.719-1.987-1.611-2.306-2.711-0.793-2.731 1.656-5.295 3.748-6.607 0.668-0.42 1.386-0.771 2.111-1.086 2.567-1.109 5.087-2.314 7.129-4.273 1.232-1.184 2.043-2.559 2.991-3.955 0.268-0.393 0.568-0.847 1.031-1.022C38.951 50.85 39.327 51.936 39.562 52.711z" fill="white"></path><g fill="white"><circle cx="33.902" cy="84.067" r="1.4" fill="white"></circle><circle cx="33.463" cy="79.112" r="1.4" fill="white"></circle><circle cx="32.081" cy="74.273" r="1.4" fill="white"></circle></g><path d="M35.811 65.986c0.406 0.404 0.406 1.062 0 1.469l0 0c-0.406 0.404-1.064 0.404-1.47 0l-4.077-4.078c-0.406-0.406-0.406-1.064 0-1.47l0 0c0.405-0.406 1.063-0.406 1.469 0L35.811 65.986z" fill="white"></path><path d="M31.011 70.988c0.324 0.474 0.203 1.121-0.271 1.443l0 0c-0.473 0.323-1.121 0.201-1.444-0.271L26.04 67.4c-0.324-0.475-0.203-1.121 0.271-1.443l0 0c0.474-0.325 1.121-0.203 1.445 0.271L31.011 70.988z" fill="white"></path><path d="M40.615 61.182c0.406 0.404 0.406 1.062 0 1.469l0 0c-0.405 0.404-1.063 0.406-1.469 0l-4.078-4.077c-0.406-0.406-0.406-1.064 0-1.47l0 0c0.406-0.406 1.063-0.406 1.469 0L40.615 61.182z" fill="white"></path></g></svg></g></g></svg></g><defs><mask></mask></defs><mask><g id="SvgjsG1195"><svg viewBox="0 0 154.5 154.5" height="154.5" width="154.5"><g><svg></svg></g><g><svg viewBox="0 0 154.5 154.5" height="154.5" width="154.5"><mask id="SvgjsMask1194"><g transform="matrix(1,0,0,1,57.241772748102704,43.83165)"><svg viewBox="0 0 40.016454503794584 66.8367" height="66.8367" width="40.016454503794584"><g><svg viewBox="0 0 40.016454503794584 66.8367" height="66.8367" width="40.016454503794584"><g><svg viewBox="0 0 40.016454503794584 66.8367" height="66.8367" width="40.016454503794584"><g id="SvgjsG1193"><svg viewBox="0 0 40.016454503794584 66.8367" height="66.8367" width="40.016454503794584" id="SvgjsSvg1192"><g><svg viewBox="0 0 40.016454503794584 66.8367" height="66.8367" width="40.016454503794584"><g transform="matrix(1,0,0,1,0,0)"><svg width="40.016454503794584" viewBox="-3.71 -36.67 25.12 41.28" height="66.8367" data-palette-color="url(#a462f438-4c76-4af6-9536-1396779c4141)"></svg></g></svg></g></svg></g></svg></g></svg></g></svg></g></mask><g transform="matrix(1,0,0,1,57.241772748102704,43.83165)"><svg viewBox="0 0 40.016454503794584 66.8367" height="66.8367" width="40.016454503794584"><g><svg viewBox="0 0 40.016454503794584 66.8367" height="66.8367" width="40.016454503794584"><g><svg viewBox="0 0 40.016454503794584 66.8367" height="66.8367" width="40.016454503794584"><g id="SvgjsG1191"><svg viewBox="0 0 40.016454503794584 66.8367" height="66.8367" width="40.016454503794584" id="SvgjsSvg1190"><g><svg viewBox="0 0 40.016454503794584 66.8367" height="66.8367" width="40.016454503794584"><g transform="matrix(1,0,0,1,0,0)"><svg width="40.016454503794584" viewBox="-3.71 -36.67 25.12 41.28" height="66.8367" data-palette-color="url(#a462f438-4c76-4af6-9536-1396779c4141)"></svg></g></svg></g></svg></g></svg></g></svg></g></svg></g><g mask="url(#fe9b4e99-a190-44af-8df3-0aa82fce8f29)"><g transform="matrix(1.7302368765414138, 0, 0, 1.7302368765414138, 1, 3.475706778594656)"><svg xmlns="http://www.w3.org/2000/svg" xmlns:xlink="http://www.w3.org/1999/xlink" version="1.1" x="0" y="0" viewBox="6.10837660115926 6.86325504427348 88.13822088038815 85.27652395072454" enable-background="new 0 0 100 100" xml:space="preserve" height="85.27652395072454" width="88.13822088038815" class="icon-none" data-fill-palette-color="accent" id="SvgjsSvg1188"></svg></g></g></svg></g><defs><mask></mask></defs></svg></g></mask></svg></g></mask><linearGradient x1="0.054" x2="0.941" y1="0.5" y2="0.5" id="74896d12-ceb4-47ad-b9b1-74da59dd407e"><stop stop-color="#0f3054" offset="0"></stop><stop stop-color="#3b8dcb" offset="0.498"></stop><stop stop-color="#0f3054" offset="1"></stop></linearGradient><rect width="154.5" height="154.5" fill="url(#74896d12-ceb4-47ad-b9b1-74da59dd407e)" mask="url(#9abd9b64-27d3-4a87-8029-00efe09a28fa)" data-fill-palette-color="accent"></rect></svg><rect width="154.5" height="154.5" fill="none" stroke="none" visibility="hidden"></rect></g></svg></g></svg>