<svg xmlns="http://www.w3.org/2000/svg" version="1.1" xmlns:xlink="http://www.w3.org/1999/xlink" xmlns:svgjs="http://svgjs.dev/svgjs" width="1000" height="623" viewBox="0 0 1000 623"><g transform="matrix(1,0,0,1,-0.6060606060606233,0.2522267206477409)"><svg viewBox="0 0 396 247" data-background-color="#001f3f" preserveAspectRatio="xMidYMid meet" height="623" width="1000" xmlns="http://www.w3.org/2000/svg" xmlns:xlink="http://www.w3.org/1999/xlink"><g id="tight-bounds" transform="matrix(1,0,0,1,0.2400000000000091,-0.09999999999999432)"><svg viewBox="0 0 395.52 247.2" height="247.2" width="395.52"><g><svg></svg></g><g><svg viewBox="0 0 395.52 247.2" height="247.2" width="395.52"><mask id="d62d46cd-2a39-4cc9-b83d-e2643ce417a7"><rect width="640" height="400" fill="white"></rect><g transform="matrix(1,0,0,1,39.55199999999999,60.372422411014796)"><svg viewBox="0 0 316.416 126.4551551779704" height="126.4551551779704" width="316.416"><g><svg viewBox="0 0 316.416 126.4551551779704" height="126.4551551779704" width="316.416"><g><svg viewBox="0 0 316.416 126.4551551779704" height="126.4551551779704" width="316.416"><g><svg viewBox="0 0 316.416 126.4551551779704" height="126.4551551779704" width="316.416"><g id="SvgjsG17835"><svg viewBox="0 0 316.416 126.4551551779704" height="126.4551551779704" width="316.416" id="SvgjsSvg17834"><g><svg viewBox="0 0 316.416 83.37664094864489" height="83.37664094864489" width="316.416"><g transform="matrix(1,0,0,1,0,0)"><svg width="316.416" viewBox="-3.709999978542328 -36.66999816894531 153.8400115966797 41.279998779296875" height="83.37664094864489" data-palette-color="url(#01384b9b-c4e0-412e-a36a-78853dafd57f)"><path d="M10.94-10.6L10.94-32.59Q12.45-32.47 13.13-32.47L13.13-32.47 15.04-32.47Q16.24-32.47 17.41-32.67L17.41-32.67 17.41-10.79Q17.41-5.42 14.55-2.34L14.55-2.34Q11.84 0.61 7.23 0.61L7.23 0.61Q4.05 0.61 1.9-0.66L1.9-0.66Q1.1-1.12 0.29-1.78L0.29-1.78 0.29-8.84 0.46-8.89Q1.49-7.28 2.87-6.25 4.25-5.22 6.3-5.22L6.3-5.22Q10.94-5.22 10.94-10.6L10.94-10.6ZM29.86-7.03L27.56 0.2Q25.46 0 22.65 0L22.65 0 20.73 0 31.35-29.76Q32.05-31.76 32.05-32.09 32.05-32.42 32.03-32.5L32.03-32.5 32.05-32.54Q33.64-32.47 35.42-32.47L35.42-32.47Q36.89-32.47 38.94-32.52L38.94-32.52 38.96-32.47Q38.91-32.37 38.91-32.2L38.91-32.2Q38.91-31.74 39.65-29.74L39.65-29.74 50.49 0.07Q50 0.05 49.34 0.05L49.34 0.05Q49.34 0.05 48.07 0L48.07 0Q47.46 0 46.97 0L46.97 0 43.19 0 40.89-7.03 29.86-7.03ZM31.71-12.89L38.99-12.89 35.3-24.24 31.71-12.89ZM61.01-20.58L61.01 0.15Q59.83 0 56.49 0L56.49 0 54.54 0 54.54-32.57Q56.1-32.47 57.98-32.47 59.86-32.47 60.64-32.67L60.64-32.67 68.84-18.73 76.73-32.67Q77.51-32.47 79.71-32.47 81.9-32.47 83.47-32.57L83.47-32.57 83.47 0 81.51 0Q78.17 0 77 0.15L77 0.15 77-21.73 69.01-7.45 61.01-20.58ZM91.28-29.54L91.28-30.27Q91.28-31.08 91.2-32.47L91.2-32.47 114.35-32.47 100.14-5.86 109-5.86Q112.47-5.86 113.09-6.07 113.71-6.27 114.08-6.45L114.08-6.45 114.08 0.37Q113.03 0.27 112.35 0.2 111.66 0.12 110.91 0.07L110.91 0.07Q109.76 0 106.46 0L106.46 0 90.03 0 104.73-26.61 97.04-26.61Q92.28-26.61 90.98-26.1L90.98-26.1Q91.28-27.32 91.28-29.54L91.28-29.54ZM135.15 0L127.82 0Q128.14-0.95 128.14-4.44L128.14-4.44 128.14-11.23Q123.92-20.53 122.74-22.84 121.57-25.15 120.77-26.49L120.77-26.49Q118.23-30.79 117.7-31.42 117.18-32.06 116.64-32.47L116.64-32.47 125.06-32.47Q125.33-31.98 125.8-31.03L125.8-31.03 131.7-18.55Q132.12-19.58 132.68-20.85L132.68-20.85Q138-32.3 138.08-32.47L138.08-32.47 146.13-32.47Q144.89-31.47 143.08-28.27L143.08-28.27Q142.52-27.32 141.96-26.1L141.96-26.1 136.44-14.6Q135.51-12.52 134.85-10.86L134.85-10.86 134.85-3.86Q134.85-1.42 135.15 0L135.15 0Z" opacity="1" transform="matrix(1,0,0,1,0,0)" fill="black" class="wordmark-text-0" id="SvgjsPath17833" stroke-width="7" stroke="black" stroke-linejoin="round"></path></svg></g></svg></g><g transform="matrix(1,0,0,1,3.5,99.63893646555158)"><svg viewBox="0 0 309.416 26.81621871241882" height="26.81621871241882" width="309.416"><g transform="matrix(1,0,0,1,0,0)"><svg width="309.416" viewBox="-3.9499999955296516 -41.099998474121094 624.6500244140625 55.04999923706055" height="26.81621871241882" data-palette-color="url(#26311c59-3ab5-4623-a663-c4e4583786af)"><path d="M31.7-35L17.7-12.1 17.7 0 14.05 0 14.05-12.1 0.05-35 4-35 16-15.35 28-35 31.7-35ZM44.45 0.25Q40.65 0.25 37.6-1.48 34.55-3.2 32.8-6.25 31.05-9.3 31.05-13.15L31.05-13.15Q31.05-17 32.8-20.05 34.55-23.1 37.6-24.8 40.65-26.5 44.45-26.5L44.45-26.5Q48.25-26.5 51.3-24.8 54.35-23.1 56.08-20.05 57.8-17 57.8-13.15L57.8-13.15Q57.8-9.3 56.08-6.25 54.35-3.2 51.3-1.48 48.25 0.25 44.45 0.25L44.45 0.25ZM44.45-2.9Q47.25-2.9 49.48-4.17 51.7-5.45 52.95-7.8 54.2-10.15 54.2-13.15L54.2-13.15Q54.2-16.15 52.95-18.5 51.7-20.85 49.48-22.13 47.25-23.4 44.45-23.4L44.45-23.4Q41.65-23.4 39.43-22.13 37.2-20.85 35.93-18.5 34.65-16.15 34.65-13.15L34.65-13.15Q34.65-10.15 35.93-7.8 37.2-5.45 39.43-4.17 41.65-2.9 44.45-2.9L44.45-2.9ZM85.2-26.3L88.75-26.3 88.75 0 85.35 0 85.35-4.8Q83.95-2.4 81.5-1.07 79.05 0.25 75.9 0.25L75.9 0.25Q70.75 0.25 67.78-2.63 64.8-5.5 64.8-11.05L64.8-11.05 64.8-26.3 68.35-26.3 68.35-11.4Q68.35-7.25 70.4-5.1 72.45-2.95 76.25-2.95L76.25-2.95Q80.4-2.95 82.8-5.48 85.2-8 85.2-12.5L85.2-12.5 85.2-26.3ZM102.1-21.15Q103.35-23.8 105.83-25.15 108.3-26.5 111.95-26.5L111.95-26.5 111.95-23.05 111.1-23.1Q106.95-23.1 104.6-20.55 102.25-18 102.25-13.4L102.25-13.4 102.25 0 98.7 0 98.7-26.3 102.1-26.3 102.1-21.15ZM165.9-35L168.95-35 168.95 0 165.4 0 165.4-28 151.65-4.45 149.9-4.45 136.15-27.85 136.15 0 132.6 0 132.6-35 135.65-35 150.85-9.05 165.9-35ZM199.75-26.3L203.3-26.3 203.3 0 199.9 0 199.9-4.8Q198.5-2.4 196.05-1.07 193.6 0.25 190.45 0.25L190.45 0.25Q185.3 0.25 182.33-2.63 179.35-5.5 179.35-11.05L179.35-11.05 179.35-26.3 182.9-26.3 182.9-11.4Q182.9-7.25 184.95-5.1 187-2.95 190.8-2.95L190.8-2.95Q194.95-2.95 197.35-5.48 199.75-8 199.75-12.5L199.75-12.5 199.75-26.3ZM220.3 0.25Q217.1 0.25 214.18-0.68 211.25-1.6 209.6-3L209.6-3 211.2-5.8Q212.85-4.5 215.35-3.68 217.85-2.85 220.55-2.85L220.55-2.85Q224.15-2.85 225.88-3.98 227.6-5.1 227.6-7.15L227.6-7.15Q227.6-8.6 226.65-9.43 225.7-10.25 224.25-10.68 222.8-11.1 220.4-11.5L220.4-11.5Q217.2-12.1 215.25-12.73 213.3-13.35 211.93-14.85 210.55-16.35 210.55-19L210.55-19Q210.55-22.3 213.3-24.4 216.05-26.5 220.95-26.5L220.95-26.5Q223.5-26.5 226.05-25.83 228.6-25.15 230.25-24.05L230.25-24.05 228.7-21.2Q225.45-23.45 220.95-23.45L220.95-23.45Q217.55-23.45 215.83-22.25 214.1-21.05 214.1-19.1L214.1-19.1Q214.1-17.6 215.08-16.7 216.05-15.8 217.5-15.38 218.95-14.95 221.5-14.5L221.5-14.5Q224.65-13.9 226.55-13.3 228.45-12.7 229.8-11.25 231.15-9.8 231.15-7.25L231.15-7.25Q231.15-3.8 228.28-1.78 225.4 0.25 220.3 0.25L220.3 0.25ZM237.7 0L237.7-26.3 241.25-26.3 241.25 0 237.7 0ZM239.5-32.05Q238.4-32.05 237.65-32.8 236.9-33.55 236.9-34.6L236.9-34.6Q236.9-35.6 237.65-36.35 238.4-37.1 239.5-37.1L239.5-37.1Q240.6-37.1 241.35-36.38 242.1-35.65 242.1-34.65L242.1-34.65Q242.1-33.55 241.35-32.8 240.6-32.05 239.5-32.05L239.5-32.05ZM262.05 0.25Q258.15 0.25 255.07-1.45 252-3.15 250.25-6.23 248.5-9.3 248.5-13.15L248.5-13.15Q248.5-17 250.25-20.05 252-23.1 255.07-24.8 258.15-26.5 262.05-26.5L262.05-26.5Q265.45-26.5 268.13-25.18 270.8-23.85 272.35-21.3L272.35-21.3 269.7-19.5Q268.4-21.45 266.4-22.43 264.4-23.4 262.05-23.4L262.05-23.4Q259.2-23.4 256.93-22.13 254.65-20.85 253.38-18.5 252.1-16.15 252.1-13.15L252.1-13.15Q252.1-10.1 253.38-7.78 254.65-5.45 256.93-4.17 259.2-2.9 262.05-2.9L262.05-2.9Q264.4-2.9 266.4-3.85 268.4-4.8 269.7-6.75L269.7-6.75 272.35-4.95Q270.8-2.4 268.1-1.07 265.4 0.25 262.05 0.25L262.05 0.25ZM288.5-26.5Q293.65-26.5 296.4-23.93 299.15-21.35 299.15-16.3L299.15-16.3 299.15 0 295.75 0 295.75-4.1Q294.55-2.05 292.22-0.9 289.9 0.25 286.7 0.25L286.7 0.25Q282.3 0.25 279.7-1.85 277.1-3.95 277.1-7.4L277.1-7.4Q277.1-10.75 279.52-12.8 281.95-14.85 287.25-14.85L287.25-14.85 295.6-14.85 295.6-16.45Q295.6-19.85 293.7-21.63 291.8-23.4 288.15-23.4L288.15-23.4Q285.65-23.4 283.35-22.58 281.05-21.75 279.4-20.3L279.4-20.3 277.8-22.95Q279.8-24.65 282.6-25.58 285.4-26.5 288.5-26.5L288.5-26.5ZM287.25-2.55Q290.25-2.55 292.4-3.93 294.55-5.3 295.6-7.9L295.6-7.9 295.6-12.2 287.35-12.2Q280.6-12.2 280.6-7.5L280.6-7.5Q280.6-5.2 282.35-3.88 284.1-2.55 287.25-2.55L287.25-2.55ZM308.8 0L308.8-37.1 312.35-37.1 312.35 0 308.8 0ZM349.2-35Q355.9-35 359.7-31.8 363.5-28.6 363.5-23L363.5-23Q363.5-17.4 359.7-14.23 355.9-11.05 349.2-11.05L349.2-11.05 339.8-11.05 339.8 0 336.1 0 336.1-35 349.2-35ZM349.1-14.3Q354.3-14.3 357.05-16.57 359.8-18.85 359.8-23L359.8-23Q359.8-27.25 357.05-29.53 354.3-31.8 349.1-31.8L349.1-31.8 339.8-31.8 339.8-14.3 349.1-14.3ZM371.25 0L371.25-37.1 374.8-37.1 374.8 0 371.25 0ZM393.9-26.5Q399.05-26.5 401.8-23.93 404.55-21.35 404.55-16.3L404.55-16.3 404.55 0 401.15 0 401.15-4.1Q399.95-2.05 397.62-0.9 395.3 0.25 392.1 0.25L392.1 0.25Q387.7 0.25 385.1-1.85 382.5-3.95 382.5-7.4L382.5-7.4Q382.5-10.75 384.92-12.8 387.35-14.85 392.65-14.85L392.65-14.85 401-14.85 401-16.45Q401-19.85 399.1-21.63 397.2-23.4 393.55-23.4L393.55-23.4Q391.05-23.4 388.75-22.58 386.45-21.75 384.8-20.3L384.8-20.3 383.2-22.95Q385.2-24.65 388-25.58 390.8-26.5 393.9-26.5L393.9-26.5ZM392.65-2.55Q395.65-2.55 397.8-3.93 399.95-5.3 401-7.9L401-7.9 401-12.2 392.75-12.2Q386-12.2 386-7.5L386-7.5Q386-5.2 387.75-3.88 389.5-2.55 392.65-2.55L392.65-2.55ZM432.3-26.3L435.8-26.3 422.65 3.15Q421.05 6.85 418.95 8.4 416.85 9.95 413.9 9.95L413.9 9.95Q412 9.95 410.35 9.35 408.7 8.75 407.5 7.55L407.5 7.55 409.15 4.9Q411.15 6.9 413.95 6.9L413.95 6.9Q415.75 6.9 417.02 5.9 418.3 4.9 419.4 2.5L419.4 2.5 420.55-0.05 408.8-26.3 412.5-26.3 422.4-3.95 432.3-26.3ZM461-26.3L464.4-26.3 464.4-3.2Q464.4 3.5 461.12 6.73 457.85 9.95 451.25 9.95L451.25 9.95Q447.6 9.95 444.32 8.88 441.05 7.8 439 5.9L439 5.9 440.8 3.2Q442.7 4.9 445.42 5.85 448.15 6.8 451.15 6.8L451.15 6.8Q456.15 6.8 458.5 4.48 460.85 2.15 460.85-2.75L460.85-2.75 460.85-6.1Q459.2-3.6 456.52-2.3 453.85-1 450.6-1L450.6-1Q446.9-1 443.87-2.63 440.85-4.25 439.12-7.18 437.4-10.1 437.4-13.8L437.4-13.8Q437.4-17.5 439.12-20.4 440.85-23.3 443.85-24.9 446.85-26.5 450.6-26.5L450.6-26.5Q453.95-26.5 456.65-25.15 459.35-23.8 461-21.25L461-21.25 461-26.3ZM450.95-4.15Q453.8-4.15 456.1-5.38 458.4-6.6 459.67-8.8 460.95-11 460.95-13.8L460.95-13.8Q460.95-16.6 459.67-18.78 458.4-20.95 456.12-22.18 453.85-23.4 450.95-23.4L450.95-23.4Q448.1-23.4 445.82-22.2 443.55-21 442.27-18.8 441-16.6 441-13.8L441-13.8Q441-11 442.27-8.8 443.55-6.6 445.82-5.38 448.1-4.15 450.95-4.15L450.95-4.15ZM477.75-21.15Q479-23.8 481.47-25.15 483.95-26.5 487.6-26.5L487.6-26.5 487.6-23.05 486.75-23.1Q482.6-23.1 480.25-20.55 477.9-18 477.9-13.4L477.9-13.4 477.9 0 474.35 0 474.35-26.3 477.75-26.3 477.75-21.15ZM504.5 0.25Q500.7 0.25 497.65-1.48 494.6-3.2 492.85-6.25 491.1-9.3 491.1-13.15L491.1-13.15Q491.1-17 492.85-20.05 494.6-23.1 497.65-24.8 500.7-26.5 504.5-26.5L504.5-26.5Q508.3-26.5 511.35-24.8 514.4-23.1 516.13-20.05 517.85-17 517.85-13.15L517.85-13.15Q517.85-9.3 516.13-6.25 514.4-3.2 511.35-1.48 508.3 0.25 504.5 0.25L504.5 0.25ZM504.5-2.9Q507.3-2.9 509.53-4.17 511.75-5.45 513-7.8 514.25-10.15 514.25-13.15L514.25-13.15Q514.25-16.15 513-18.5 511.75-20.85 509.53-22.13 507.3-23.4 504.5-23.4L504.5-23.4Q501.7-23.4 499.48-22.13 497.25-20.85 495.98-18.5 494.7-16.15 494.7-13.15L494.7-13.15Q494.7-10.15 495.98-7.8 497.25-5.45 499.48-4.17 501.7-2.9 504.5-2.9L504.5-2.9ZM545.25-26.3L548.8-26.3 548.8 0 545.4 0 545.4-4.8Q544-2.4 541.55-1.07 539.1 0.25 535.95 0.25L535.95 0.25Q530.8 0.25 527.82-2.63 524.85-5.5 524.85-11.05L524.85-11.05 524.85-26.3 528.4-26.3 528.4-11.4Q528.4-7.25 530.45-5.1 532.5-2.95 536.3-2.95L536.3-2.95Q540.45-2.95 542.85-5.48 545.25-8 545.25-12.5L545.25-12.5 545.25-26.3ZM572.15-26.5Q577.1-26.5 580.02-23.63 582.95-20.75 582.95-15.25L582.95-15.25 582.95 0 579.4 0 579.4-14.9Q579.4-19 577.35-21.15 575.3-23.3 571.5-23.3L571.5-23.3Q567.25-23.3 564.77-20.78 562.3-18.25 562.3-13.8L562.3-13.8 562.3 0 558.75 0 558.75-26.3 562.15-26.3 562.15-21.45Q563.6-23.85 566.17-25.18 568.75-26.5 572.15-26.5L572.15-26.5ZM613.15-37.1L616.7-37.1 616.7 0 613.3 0 613.3-5.2Q611.7-2.55 609.08-1.15 606.45 0.25 603.15 0.25L603.15 0.25Q599.45 0.25 596.45-1.45 593.45-3.15 591.75-6.2 590.05-9.25 590.05-13.15L590.05-13.15Q590.05-17.05 591.75-20.1 593.45-23.15 596.45-24.83 599.45-26.5 603.15-26.5L603.15-26.5Q606.35-26.5 608.92-25.18 611.5-23.85 613.15-21.3L613.15-21.3 613.15-37.1ZM603.45-2.9Q606.2-2.9 608.42-4.17 610.65-5.45 611.92-7.8 613.2-10.15 613.2-13.15L613.2-13.15Q613.2-16.15 611.92-18.5 610.65-20.85 608.42-22.13 606.2-23.4 603.45-23.4L603.45-23.4Q600.65-23.4 598.42-22.13 596.2-20.85 594.92-18.5 593.65-16.15 593.65-13.15L593.65-13.15Q593.65-10.15 594.92-7.8 596.2-5.45 598.42-4.17 600.65-2.9 603.45-2.9L603.45-2.9Z" opacity="1" transform="matrix(1,0,0,1,0,0)" fill="black" class="slogan-text-1" id="SvgjsPath17832" stroke-width="7" stroke="black" stroke-linejoin="round"></path></svg></g></svg></g></svg></g></svg></g></svg></g></svg></g></svg></g></mask><g transform="matrix(1,0,0,1,39.55199999999999,60.372422411014796)"><svg viewBox="0 0 316.416 126.4551551779704" height="126.4551551779704" width="316.416"><g><svg viewBox="0 0 316.416 126.4551551779704" height="126.4551551779704" width="316.416"><g><svg viewBox="0 0 316.416 126.4551551779704" height="126.4551551779704" width="316.416"><g><svg viewBox="0 0 316.416 126.4551551779704" height="126.4551551779704" width="316.416"><g id="textblocktransform"><svg viewBox="0 0 316.416 126.4551551779704" height="126.4551551779704" width="316.416" id="textblock"><g><svg viewBox="0 0 316.416 83.37664094864489" height="83.37664094864489" width="316.416"><g transform="matrix(1,0,0,1,0,0)"><svg width="316.416" viewBox="-3.709999978542328 -36.66999816894531 153.8400115966797 41.279998779296875" height="83.37664094864489" data-palette-color="url(#01384b9b-c4e0-412e-a36a-78853dafd57f)"></svg></g></svg></g><g transform="matrix(1,0,0,1,3.5,99.63893646555158)"><svg viewBox="0 0 309.416 26.81621871241882" height="26.81621871241882" width="309.416"><g transform="matrix(1,0,0,1,0,0)"><svg width="309.416" viewBox="-3.9499999955296516 -41.099998474121094 624.6500244140625 55.04999923706055" height="26.81621871241882" data-palette-color="url(#26311c59-3ab5-4623-a663-c4e4583786af)"></svg></g></svg></g></svg></g></svg></g></svg></g></svg></g></svg></g><g mask="url(#d62d46cd-2a39-4cc9-b83d-e2643ce417a7)"><g transform="matrix(2.8753518629258203, 0, 0, 2.8753518629258203, 71.04578899282514, 1)"><svg xmlns="http://www.w3.org/2000/svg" xmlns:xlink="http://www.w3.org/1999/xlink" version="1.1" x="0" y="0" viewBox="6.108383655548096 6.863254547119141 88.13822937011719 85.27651977539062" enable-background="new 0 0 100 100" xml:space="preserve" height="85.27651977539062" width="88.13822937011719" class="icon-none" data-fill-palette-color="accent" id="none"></svg></g></g></svg></g><defs></defs><mask id="bb46cad3-7754-4728-8dab-1914111d8dad"><g id="SvgjsG17847"><svg viewBox="0 0 395.52 247.2" height="247.2" width="395.52"><g><svg></svg></g><g><svg viewBox="0 0 395.52 247.2" height="247.2" width="395.52"><mask id="SvgjsMask17846"><g transform="matrix(1,0,0,1,39.55199999999999,60.372422411014796)"><svg viewBox="0 0 316.416 126.4551551779704" height="126.4551551779704" width="316.416"><g><svg viewBox="0 0 316.416 126.4551551779704" height="126.4551551779704" width="316.416"><g><svg viewBox="0 0 316.416 126.4551551779704" height="126.4551551779704" width="316.416"><g><svg viewBox="0 0 316.416 126.4551551779704" height="126.4551551779704" width="316.416"><g id="SvgjsG17845"><svg viewBox="0 0 316.416 126.4551551779704" height="126.4551551779704" width="316.416" id="SvgjsSvg17844"><g><svg viewBox="0 0 316.416 83.37664094864489" height="83.37664094864489" width="316.416"><g transform="matrix(1,0,0,1,0,0)"><svg width="316.416" viewBox="-3.709999978542328 -36.66999816894531 153.8400115966797 41.279998779296875" height="83.37664094864489" data-palette-color="url(#01384b9b-c4e0-412e-a36a-78853dafd57f)"></svg></g></svg></g><g transform="matrix(1,0,0,1,3.5,99.63893646555158)"><svg viewBox="0 0 309.416 26.81621871241882" height="26.81621871241882" width="309.416"><g transform="matrix(1,0,0,1,0,0)"><svg width="309.416" viewBox="-3.9499999955296516 -41.099998474121094 624.6500244140625 55.04999923706055" height="26.81621871241882" data-palette-color="url(#26311c59-3ab5-4623-a663-c4e4583786af)"></svg></g></svg></g></svg></g></svg></g></svg></g></svg></g></svg></g></mask><g transform="matrix(1,0,0,1,39.55199999999999,60.372422411014796)"><svg viewBox="0 0 316.416 126.4551551779704" height="126.4551551779704" width="316.416"><g><svg viewBox="0 0 316.416 126.4551551779704" height="126.4551551779704" width="316.416"><g><svg viewBox="0 0 316.416 126.4551551779704" height="126.4551551779704" width="316.416"><g><svg viewBox="0 0 316.416 126.4551551779704" height="126.4551551779704" width="316.416"><g id="SvgjsG17841"><svg viewBox="0 0 316.416 126.4551551779704" height="126.4551551779704" width="316.416" id="SvgjsSvg17840"><g><svg viewBox="0 0 316.416 83.37664094864489" height="83.37664094864489" width="316.416"><g transform="matrix(1,0,0,1,0,0)"><svg width="316.416" viewBox="-3.709999978542328 -36.66999816894531 153.8400115966797 41.279998779296875" height="83.37664094864489" data-palette-color="url(#01384b9b-c4e0-412e-a36a-78853dafd57f)"><path d="M10.94-10.6L10.94-32.59Q12.45-32.47 13.13-32.47L13.13-32.47 15.04-32.47Q16.24-32.47 17.41-32.67L17.41-32.67 17.41-10.79Q17.41-5.42 14.55-2.34L14.55-2.34Q11.84 0.61 7.23 0.61L7.23 0.61Q4.05 0.61 1.9-0.66L1.9-0.66Q1.1-1.12 0.29-1.78L0.29-1.78 0.29-8.84 0.46-8.89Q1.49-7.28 2.87-6.25 4.25-5.22 6.3-5.22L6.3-5.22Q10.94-5.22 10.94-10.6L10.94-10.6ZM29.86-7.03L27.56 0.2Q25.46 0 22.65 0L22.65 0 20.73 0 31.35-29.76Q32.05-31.76 32.05-32.09 32.05-32.42 32.03-32.5L32.03-32.5 32.05-32.54Q33.64-32.47 35.42-32.47L35.42-32.47Q36.89-32.47 38.94-32.52L38.94-32.52 38.96-32.47Q38.91-32.37 38.91-32.2L38.91-32.2Q38.91-31.74 39.65-29.74L39.65-29.74 50.49 0.07Q50 0.05 49.34 0.05L49.34 0.05Q49.34 0.05 48.07 0L48.07 0Q47.46 0 46.97 0L46.97 0 43.19 0 40.89-7.03 29.86-7.03ZM31.71-12.89L38.99-12.89 35.3-24.24 31.71-12.89ZM61.01-20.58L61.01 0.15Q59.83 0 56.49 0L56.49 0 54.54 0 54.54-32.57Q56.1-32.47 57.98-32.47 59.86-32.47 60.64-32.67L60.64-32.67 68.84-18.73 76.73-32.67Q77.51-32.47 79.71-32.47 81.9-32.47 83.47-32.57L83.47-32.57 83.47 0 81.51 0Q78.17 0 77 0.15L77 0.15 77-21.73 69.01-7.45 61.01-20.58ZM91.28-29.54L91.28-30.27Q91.28-31.08 91.2-32.47L91.2-32.47 114.35-32.47 100.14-5.86 109-5.86Q112.47-5.86 113.09-6.07 113.71-6.27 114.08-6.45L114.08-6.45 114.08 0.37Q113.03 0.27 112.35 0.2 111.66 0.12 110.91 0.07L110.91 0.07Q109.76 0 106.46 0L106.46 0 90.03 0 104.73-26.61 97.04-26.61Q92.28-26.61 90.98-26.1L90.98-26.1Q91.28-27.32 91.28-29.54L91.28-29.54ZM135.15 0L127.82 0Q128.14-0.95 128.14-4.44L128.14-4.44 128.14-11.23Q123.92-20.53 122.74-22.84 121.57-25.15 120.77-26.49L120.77-26.49Q118.23-30.79 117.7-31.42 117.18-32.06 116.64-32.47L116.64-32.47 125.06-32.47Q125.33-31.98 125.8-31.03L125.8-31.03 131.7-18.55Q132.12-19.58 132.68-20.85L132.68-20.85Q138-32.3 138.08-32.47L138.08-32.47 146.13-32.47Q144.89-31.47 143.08-28.27L143.08-28.27Q142.52-27.32 141.96-26.1L141.96-26.1 136.44-14.6Q135.51-12.52 134.85-10.86L134.85-10.86 134.85-3.86Q134.85-1.42 135.15 0L135.15 0Z" opacity="1" transform="matrix(1,0,0,1,0,0)" fill="white" class="wordmark-text-0" id="SvgjsPath17839"></path></svg></g></svg></g><g transform="matrix(1,0,0,1,3.5,99.63893646555158)"><svg viewBox="0 0 309.416 26.81621871241882" height="26.81621871241882" width="309.416"><g transform="matrix(1,0,0,1,0,0)"><svg width="309.416" viewBox="-3.9499999955296516 -41.099998474121094 624.6500244140625 55.04999923706055" height="26.81621871241882" data-palette-color="url(#26311c59-3ab5-4623-a663-c4e4583786af)"></svg></g></svg></g></svg></g></svg></g></svg></g></svg></g></svg></g><g mask="url(#d62d46cd-2a39-4cc9-b83d-e2643ce417a7)"><g transform="matrix(2.8753518629258203, 0, 0, 2.8753518629258203, 71.04578899282514, 1)"><svg xmlns="http://www.w3.org/2000/svg" xmlns:xlink="http://www.w3.org/1999/xlink" version="1.1" x="0" y="0" viewBox="6.108383655548096 6.863254547119141 88.13822937011719 85.27651977539062" enable-background="new 0 0 100 100" xml:space="preserve" height="85.27651977539062" width="88.13822937011719" class="icon-none" data-fill-palette-color="accent" id="SvgjsSvg17837"></svg></g></g></svg></g><defs><mask></mask></defs></svg></g></mask><linearGradient x1="0" x2="1" y1="0.5" y2="0.5" id="01384b9b-c4e0-412e-a36a-78853dafd57f"><stop stop-color="#f00b51" offset="0"></stop><stop stop-color="#730062" offset="1"></stop></linearGradient><rect width="395.5199890136719" height="247.1999969482422" fill="url(#01384b9b-c4e0-412e-a36a-78853dafd57f)" mask="url(#bb46cad3-7754-4728-8dab-1914111d8dad)" data-fill-palette-color="primary"></rect><mask id="c763e837-7884-4206-86cb-ba8bc0b7bc62"><g id="SvgjsG17865"><svg viewBox="0 0 395.52 247.2" height="247.2" width="395.52"><g><svg></svg></g><g><svg viewBox="0 0 395.52 247.2" height="247.2" width="395.52"><mask id="SvgjsMask17864"><g transform="matrix(1,0,0,1,39.55199999999999,60.372422411014796)"><svg viewBox="0 0 316.416 126.4551551779704" height="126.4551551779704" width="316.416"><g><svg viewBox="0 0 316.416 126.4551551779704" height="126.4551551779704" width="316.416"><g><svg viewBox="0 0 316.416 126.4551551779704" height="126.4551551779704" width="316.416"><g><svg viewBox="0 0 316.416 126.4551551779704" height="126.4551551779704" width="316.416"><g id="SvgjsG17863"><svg viewBox="0 0 316.416 126.4551551779704" height="126.4551551779704" width="316.416" id="SvgjsSvg17862"><g><svg viewBox="0 0 316.416 83.37664094864489" height="83.37664094864489" width="316.416"><g transform="matrix(1,0,0,1,0,0)"><svg width="316.416" viewBox="-3.709999978542328 -36.66999816894531 153.8400115966797 41.279998779296875" height="83.37664094864489" data-palette-color="url(#01384b9b-c4e0-412e-a36a-78853dafd57f)"></svg></g></svg></g><g transform="matrix(1,0,0,1,3.5,99.63893646555158)"><svg viewBox="0 0 309.416 26.81621871241882" height="26.81621871241882" width="309.416"><g transform="matrix(1,0,0,1,0,0)"><svg width="309.416" viewBox="-3.9499999955296516 -41.099998474121094 624.6500244140625 55.04999923706055" height="26.81621871241882" data-palette-color="url(#26311c59-3ab5-4623-a663-c4e4583786af)"></svg></g></svg></g></svg></g></svg></g></svg></g></svg></g></svg></g></mask><g transform="matrix(1,0,0,1,39.55199999999999,60.372422411014796)"><svg viewBox="0 0 316.416 126.4551551779704" height="126.4551551779704" width="316.416"><g><svg viewBox="0 0 316.416 126.4551551779704" height="126.4551551779704" width="316.416"><g><svg viewBox="0 0 316.416 126.4551551779704" height="126.4551551779704" width="316.416"><g><svg viewBox="0 0 316.416 126.4551551779704" height="126.4551551779704" width="316.416"><g id="SvgjsG17859"><svg viewBox="0 0 316.416 126.4551551779704" height="126.4551551779704" width="316.416" id="SvgjsSvg17858"><g><svg viewBox="0 0 316.416 83.37664094864489" height="83.37664094864489" width="316.416"><g transform="matrix(1,0,0,1,0,0)"><svg width="316.416" viewBox="-3.709999978542328 -36.66999816894531 153.8400115966797 41.279998779296875" height="83.37664094864489" data-palette-color="url(#01384b9b-c4e0-412e-a36a-78853dafd57f)"></svg></g></svg></g><g transform="matrix(1,0,0,1,3.5,99.63893646555158)"><svg viewBox="0 0 309.416 26.81621871241882" height="26.81621871241882" width="309.416"><g transform="matrix(1,0,0,1,0,0)"><svg width="309.416" viewBox="-3.9499999955296516 -41.099998474121094 624.6500244140625 55.04999923706055" height="26.81621871241882" data-palette-color="url(#26311c59-3ab5-4623-a663-c4e4583786af)"><path d="M31.7-35L17.7-12.1 17.7 0 14.05 0 14.05-12.1 0.05-35 4-35 16-15.35 28-35 31.7-35ZM44.45 0.25Q40.65 0.25 37.6-1.48 34.55-3.2 32.8-6.25 31.05-9.3 31.05-13.15L31.05-13.15Q31.05-17 32.8-20.05 34.55-23.1 37.6-24.8 40.65-26.5 44.45-26.5L44.45-26.5Q48.25-26.5 51.3-24.8 54.35-23.1 56.08-20.05 57.8-17 57.8-13.15L57.8-13.15Q57.8-9.3 56.08-6.25 54.35-3.2 51.3-1.48 48.25 0.25 44.45 0.25L44.45 0.25ZM44.45-2.9Q47.25-2.9 49.48-4.17 51.7-5.45 52.95-7.8 54.2-10.15 54.2-13.15L54.2-13.15Q54.2-16.15 52.95-18.5 51.7-20.85 49.48-22.13 47.25-23.4 44.45-23.4L44.45-23.4Q41.65-23.4 39.43-22.13 37.2-20.85 35.93-18.5 34.65-16.15 34.65-13.15L34.65-13.15Q34.65-10.15 35.93-7.8 37.2-5.45 39.43-4.17 41.65-2.9 44.45-2.9L44.45-2.9ZM85.2-26.3L88.75-26.3 88.75 0 85.35 0 85.35-4.8Q83.95-2.4 81.5-1.07 79.05 0.25 75.9 0.25L75.9 0.25Q70.75 0.25 67.78-2.63 64.8-5.5 64.8-11.05L64.8-11.05 64.8-26.3 68.35-26.3 68.35-11.4Q68.35-7.25 70.4-5.1 72.45-2.95 76.25-2.95L76.25-2.95Q80.4-2.95 82.8-5.48 85.2-8 85.2-12.5L85.2-12.5 85.2-26.3ZM102.1-21.15Q103.35-23.8 105.83-25.15 108.3-26.5 111.95-26.5L111.95-26.5 111.95-23.05 111.1-23.1Q106.95-23.1 104.6-20.55 102.25-18 102.25-13.4L102.25-13.4 102.25 0 98.7 0 98.7-26.3 102.1-26.3 102.1-21.15ZM165.9-35L168.95-35 168.95 0 165.4 0 165.4-28 151.65-4.45 149.9-4.45 136.15-27.85 136.15 0 132.6 0 132.6-35 135.65-35 150.85-9.05 165.9-35ZM199.75-26.3L203.3-26.3 203.3 0 199.9 0 199.9-4.8Q198.5-2.4 196.05-1.07 193.6 0.25 190.45 0.25L190.45 0.25Q185.3 0.25 182.33-2.63 179.35-5.5 179.35-11.05L179.35-11.05 179.35-26.3 182.9-26.3 182.9-11.4Q182.9-7.25 184.95-5.1 187-2.95 190.8-2.95L190.8-2.95Q194.95-2.95 197.35-5.48 199.75-8 199.75-12.5L199.75-12.5 199.75-26.3ZM220.3 0.25Q217.1 0.25 214.18-0.68 211.25-1.6 209.6-3L209.6-3 211.2-5.8Q212.85-4.5 215.35-3.68 217.85-2.85 220.55-2.85L220.55-2.85Q224.15-2.85 225.88-3.98 227.6-5.1 227.6-7.15L227.6-7.15Q227.6-8.6 226.65-9.43 225.7-10.25 224.25-10.68 222.8-11.1 220.4-11.5L220.4-11.5Q217.2-12.1 215.25-12.73 213.3-13.35 211.93-14.85 210.55-16.35 210.55-19L210.55-19Q210.55-22.3 213.3-24.4 216.05-26.5 220.95-26.5L220.95-26.5Q223.5-26.5 226.05-25.83 228.6-25.15 230.25-24.05L230.25-24.05 228.7-21.2Q225.45-23.45 220.95-23.45L220.95-23.45Q217.55-23.45 215.83-22.25 214.1-21.05 214.1-19.1L214.1-19.1Q214.1-17.6 215.08-16.7 216.05-15.8 217.5-15.38 218.95-14.95 221.5-14.5L221.5-14.5Q224.65-13.9 226.55-13.3 228.45-12.7 229.8-11.25 231.15-9.8 231.15-7.25L231.15-7.25Q231.15-3.8 228.28-1.78 225.4 0.25 220.3 0.25L220.3 0.25ZM237.7 0L237.7-26.3 241.25-26.3 241.25 0 237.7 0ZM239.5-32.05Q238.4-32.05 237.65-32.8 236.9-33.55 236.9-34.6L236.9-34.6Q236.9-35.6 237.65-36.35 238.4-37.1 239.5-37.1L239.5-37.1Q240.6-37.1 241.35-36.38 242.1-35.65 242.1-34.65L242.1-34.65Q242.1-33.55 241.35-32.8 240.6-32.05 239.5-32.05L239.5-32.05ZM262.05 0.25Q258.15 0.25 255.07-1.45 252-3.15 250.25-6.23 248.5-9.3 248.5-13.15L248.5-13.15Q248.5-17 250.25-20.05 252-23.1 255.07-24.8 258.15-26.5 262.05-26.5L262.05-26.5Q265.45-26.5 268.13-25.18 270.8-23.85 272.35-21.3L272.35-21.3 269.7-19.5Q268.4-21.45 266.4-22.43 264.4-23.4 262.05-23.4L262.05-23.4Q259.2-23.4 256.93-22.13 254.65-20.85 253.38-18.5 252.1-16.15 252.1-13.15L252.1-13.15Q252.1-10.1 253.38-7.78 254.65-5.45 256.93-4.17 259.2-2.9 262.05-2.9L262.05-2.9Q264.4-2.9 266.4-3.85 268.4-4.8 269.7-6.75L269.7-6.75 272.35-4.95Q270.8-2.4 268.1-1.07 265.4 0.25 262.05 0.25L262.05 0.25ZM288.5-26.5Q293.65-26.5 296.4-23.93 299.15-21.35 299.15-16.3L299.15-16.3 299.15 0 295.75 0 295.75-4.1Q294.55-2.05 292.22-0.9 289.9 0.25 286.7 0.25L286.7 0.25Q282.3 0.25 279.7-1.85 277.1-3.95 277.1-7.4L277.1-7.4Q277.1-10.75 279.52-12.8 281.95-14.85 287.25-14.85L287.25-14.85 295.6-14.85 295.6-16.45Q295.6-19.85 293.7-21.63 291.8-23.4 288.15-23.4L288.15-23.4Q285.65-23.4 283.35-22.58 281.05-21.75 279.4-20.3L279.4-20.3 277.8-22.95Q279.8-24.65 282.6-25.58 285.4-26.5 288.5-26.5L288.5-26.5ZM287.25-2.55Q290.25-2.55 292.4-3.93 294.55-5.3 295.6-7.9L295.6-7.9 295.6-12.2 287.35-12.2Q280.6-12.2 280.6-7.5L280.6-7.5Q280.6-5.2 282.35-3.88 284.1-2.55 287.25-2.55L287.25-2.55ZM308.8 0L308.8-37.1 312.35-37.1 312.35 0 308.8 0ZM349.2-35Q355.9-35 359.7-31.8 363.5-28.6 363.5-23L363.5-23Q363.5-17.4 359.7-14.23 355.9-11.05 349.2-11.05L349.2-11.05 339.8-11.05 339.8 0 336.1 0 336.1-35 349.2-35ZM349.1-14.3Q354.3-14.3 357.05-16.57 359.8-18.85 359.8-23L359.8-23Q359.8-27.25 357.05-29.53 354.3-31.8 349.1-31.8L349.1-31.8 339.8-31.8 339.8-14.3 349.1-14.3ZM371.25 0L371.25-37.1 374.8-37.1 374.8 0 371.25 0ZM393.9-26.5Q399.05-26.5 401.8-23.93 404.55-21.35 404.55-16.3L404.55-16.3 404.55 0 401.15 0 401.15-4.1Q399.95-2.05 397.62-0.9 395.3 0.25 392.1 0.25L392.1 0.25Q387.7 0.25 385.1-1.85 382.5-3.95 382.5-7.4L382.5-7.4Q382.5-10.75 384.92-12.8 387.35-14.85 392.65-14.85L392.65-14.85 401-14.85 401-16.45Q401-19.85 399.1-21.63 397.2-23.4 393.55-23.4L393.55-23.4Q391.05-23.4 388.75-22.58 386.45-21.75 384.8-20.3L384.8-20.3 383.2-22.95Q385.2-24.65 388-25.58 390.8-26.5 393.9-26.5L393.9-26.5ZM392.65-2.55Q395.65-2.55 397.8-3.93 399.95-5.3 401-7.9L401-7.9 401-12.2 392.75-12.2Q386-12.2 386-7.5L386-7.5Q386-5.2 387.75-3.88 389.5-2.55 392.65-2.55L392.65-2.55ZM432.3-26.3L435.8-26.3 422.65 3.15Q421.05 6.85 418.95 8.4 416.85 9.95 413.9 9.95L413.9 9.95Q412 9.95 410.35 9.35 408.7 8.75 407.5 7.55L407.5 7.55 409.15 4.9Q411.15 6.9 413.95 6.9L413.95 6.9Q415.75 6.9 417.02 5.9 418.3 4.9 419.4 2.5L419.4 2.5 420.55-0.05 408.8-26.3 412.5-26.3 422.4-3.95 432.3-26.3ZM461-26.3L464.4-26.3 464.4-3.2Q464.4 3.5 461.12 6.73 457.85 9.95 451.25 9.95L451.25 9.95Q447.6 9.95 444.32 8.88 441.05 7.8 439 5.9L439 5.9 440.8 3.2Q442.7 4.9 445.42 5.85 448.15 6.8 451.15 6.8L451.15 6.8Q456.15 6.8 458.5 4.48 460.85 2.15 460.85-2.75L460.85-2.75 460.85-6.1Q459.2-3.6 456.52-2.3 453.85-1 450.6-1L450.6-1Q446.9-1 443.87-2.63 440.85-4.25 439.12-7.18 437.4-10.1 437.4-13.8L437.4-13.8Q437.4-17.5 439.12-20.4 440.85-23.3 443.85-24.9 446.85-26.5 450.6-26.5L450.6-26.5Q453.95-26.5 456.65-25.15 459.35-23.8 461-21.25L461-21.25 461-26.3ZM450.95-4.15Q453.8-4.15 456.1-5.38 458.4-6.6 459.67-8.8 460.95-11 460.95-13.8L460.95-13.8Q460.95-16.6 459.67-18.78 458.4-20.95 456.12-22.18 453.85-23.4 450.95-23.4L450.95-23.4Q448.1-23.4 445.82-22.2 443.55-21 442.27-18.8 441-16.6 441-13.8L441-13.8Q441-11 442.27-8.8 443.55-6.6 445.82-5.38 448.1-4.15 450.95-4.15L450.95-4.15ZM477.75-21.15Q479-23.8 481.47-25.15 483.95-26.5 487.6-26.5L487.6-26.5 487.6-23.05 486.75-23.1Q482.6-23.1 480.25-20.55 477.9-18 477.9-13.4L477.9-13.4 477.9 0 474.35 0 474.35-26.3 477.75-26.3 477.75-21.15ZM504.5 0.25Q500.7 0.25 497.65-1.48 494.6-3.2 492.85-6.25 491.1-9.3 491.1-13.15L491.1-13.15Q491.1-17 492.85-20.05 494.6-23.1 497.65-24.8 500.7-26.5 504.5-26.5L504.5-26.5Q508.3-26.5 511.35-24.8 514.4-23.1 516.13-20.05 517.85-17 517.85-13.15L517.85-13.15Q517.85-9.3 516.13-6.25 514.4-3.2 511.35-1.48 508.3 0.25 504.5 0.25L504.5 0.25ZM504.5-2.9Q507.3-2.9 509.53-4.17 511.75-5.45 513-7.8 514.25-10.15 514.25-13.15L514.25-13.15Q514.25-16.15 513-18.5 511.75-20.85 509.53-22.13 507.3-23.4 504.5-23.4L504.5-23.4Q501.7-23.4 499.48-22.13 497.25-20.85 495.98-18.5 494.7-16.15 494.7-13.15L494.7-13.15Q494.7-10.15 495.98-7.8 497.25-5.45 499.48-4.17 501.7-2.9 504.5-2.9L504.5-2.9ZM545.25-26.3L548.8-26.3 548.8 0 545.4 0 545.4-4.8Q544-2.4 541.55-1.07 539.1 0.25 535.95 0.25L535.95 0.25Q530.8 0.25 527.82-2.63 524.85-5.5 524.85-11.05L524.85-11.05 524.85-26.3 528.4-26.3 528.4-11.4Q528.4-7.25 530.45-5.1 532.5-2.95 536.3-2.95L536.3-2.95Q540.45-2.95 542.85-5.48 545.25-8 545.25-12.5L545.25-12.5 545.25-26.3ZM572.15-26.5Q577.1-26.5 580.02-23.63 582.95-20.75 582.95-15.25L582.95-15.25 582.95 0 579.4 0 579.4-14.9Q579.4-19 577.35-21.15 575.3-23.3 571.5-23.3L571.5-23.3Q567.25-23.3 564.77-20.78 562.3-18.25 562.3-13.8L562.3-13.8 562.3 0 558.75 0 558.75-26.3 562.15-26.3 562.15-21.45Q563.6-23.85 566.17-25.18 568.75-26.5 572.15-26.5L572.15-26.5ZM613.15-37.1L616.7-37.1 616.7 0 613.3 0 613.3-5.2Q611.7-2.55 609.08-1.15 606.45 0.25 603.15 0.25L603.15 0.25Q599.45 0.25 596.45-1.45 593.45-3.15 591.75-6.2 590.05-9.25 590.05-13.15L590.05-13.15Q590.05-17.05 591.75-20.1 593.45-23.15 596.45-24.83 599.45-26.5 603.15-26.5L603.15-26.5Q606.35-26.5 608.92-25.18 611.5-23.85 613.15-21.3L613.15-21.3 613.15-37.1ZM603.45-2.9Q606.2-2.9 608.42-4.17 610.65-5.45 611.92-7.8 613.2-10.15 613.2-13.15L613.2-13.15Q613.2-16.15 611.92-18.5 610.65-20.85 608.42-22.13 606.2-23.4 603.45-23.4L603.45-23.4Q600.65-23.4 598.42-22.13 596.2-20.85 594.92-18.5 593.65-16.15 593.65-13.15L593.65-13.15Q593.65-10.15 594.92-7.8 596.2-5.45 598.42-4.17 600.65-2.9 603.45-2.9L603.45-2.9Z" opacity="1" transform="matrix(1,0,0,1,0,0)" fill="white" class="slogan-text-1" id="SvgjsPath17857"></path></svg></g></svg></g></svg></g></svg></g></svg></g></svg></g></svg></g><g mask="url(#d62d46cd-2a39-4cc9-b83d-e2643ce417a7)"><g transform="matrix(2.8753518629258203, 0, 0, 2.8753518629258203, 71.04578899282514, 1)"><svg xmlns="http://www.w3.org/2000/svg" xmlns:xlink="http://www.w3.org/1999/xlink" version="1.1" x="0" y="0" viewBox="6.108383655548096 6.863254547119141 88.13822937011719 85.27651977539062" enable-background="new 0 0 100 100" xml:space="preserve" height="85.27651977539062" width="88.13822937011719" class="icon-none" data-fill-palette-color="accent" id="SvgjsSvg17856"></svg></g></g></svg></g><defs><mask></mask></defs><mask><g id="SvgjsG17855"><svg viewBox="0 0 395.52 247.2" height="247.2" width="395.52"><g><svg></svg></g><g><svg viewBox="0 0 395.52 247.2" height="247.2" width="395.52"><mask id="SvgjsMask17854"><g transform="matrix(1,0,0,1,39.55199999999999,60.372422411014796)"><svg viewBox="0 0 316.416 126.4551551779704" height="126.4551551779704" width="316.416"><g><svg viewBox="0 0 316.416 126.4551551779704" height="126.4551551779704" width="316.416"><g><svg viewBox="0 0 316.416 126.4551551779704" height="126.4551551779704" width="316.416"><g><svg viewBox="0 0 316.416 126.4551551779704" height="126.4551551779704" width="316.416"><g id="SvgjsG17853"><svg viewBox="0 0 316.416 126.4551551779704" height="126.4551551779704" width="316.416" id="SvgjsSvg17852"><g><svg viewBox="0 0 316.416 83.37664094864489" height="83.37664094864489" width="316.416"><g transform="matrix(1,0,0,1,0,0)"><svg width="316.416" viewBox="-3.709999978542328 -36.66999816894531 153.8400115966797 41.279998779296875" height="83.37664094864489" data-palette-color="url(#01384b9b-c4e0-412e-a36a-78853dafd57f)"></svg></g></svg></g><g transform="matrix(1,0,0,1,3.5,99.63893646555158)"><svg viewBox="0 0 309.416 26.81621871241882" height="26.81621871241882" width="309.416"><g transform="matrix(1,0,0,1,0,0)"><svg width="309.416" viewBox="-3.9499999955296516 -41.099998474121094 624.6500244140625 55.04999923706055" height="26.81621871241882" data-palette-color="url(#26311c59-3ab5-4623-a663-c4e4583786af)"></svg></g></svg></g></svg></g></svg></g></svg></g></svg></g></svg></g></mask><g transform="matrix(1,0,0,1,39.55199999999999,60.372422411014796)"><svg viewBox="0 0 316.416 126.4551551779704" height="126.4551551779704" width="316.416"><g><svg viewBox="0 0 316.416 126.4551551779704" height="126.4551551779704" width="316.416"><g><svg viewBox="0 0 316.416 126.4551551779704" height="126.4551551779704" width="316.416"><g><svg viewBox="0 0 316.416 126.4551551779704" height="126.4551551779704" width="316.416"><g id="SvgjsG17851"><svg viewBox="0 0 316.416 126.4551551779704" height="126.4551551779704" width="316.416" id="SvgjsSvg17850"><g><svg viewBox="0 0 316.416 83.37664094864489" height="83.37664094864489" width="316.416"><g transform="matrix(1,0,0,1,0,0)"><svg width="316.416" viewBox="-3.709999978542328 -36.66999816894531 153.8400115966797 41.279998779296875" height="83.37664094864489" data-palette-color="url(#01384b9b-c4e0-412e-a36a-78853dafd57f)"></svg></g></svg></g><g transform="matrix(1,0,0,1,3.5,99.63893646555158)"><svg viewBox="0 0 309.416 26.81621871241882" height="26.81621871241882" width="309.416"><g transform="matrix(1,0,0,1,0,0)"><svg width="309.416" viewBox="-3.9499999955296516 -41.099998474121094 624.6500244140625 55.04999923706055" height="26.81621871241882" data-palette-color="url(#26311c59-3ab5-4623-a663-c4e4583786af)"></svg></g></svg></g></svg></g></svg></g></svg></g></svg></g></svg></g><g mask="url(#d62d46cd-2a39-4cc9-b83d-e2643ce417a7)"><g transform="matrix(2.8753518629258203, 0, 0, 2.8753518629258203, 71.04578899282514, 1)"><svg xmlns="http://www.w3.org/2000/svg" xmlns:xlink="http://www.w3.org/1999/xlink" version="1.1" x="0" y="0" viewBox="6.108383655548096 6.863254547119141 88.13822937011719 85.27651977539062" enable-background="new 0 0 100 100" xml:space="preserve" height="85.27651977539062" width="88.13822937011719" class="icon-none" data-fill-palette-color="accent" id="SvgjsSvg17848"></svg></g></g></svg></g><defs><mask></mask></defs></svg></g></mask></svg></g></mask><linearGradient x1="0" x2="1" y1="0.5" y2="0.5" id="26311c59-3ab5-4623-a663-c4e4583786af"><stop stop-color="#ffa62e" offset="0"></stop><stop stop-color="#f71b3d" offset="1"></stop></linearGradient><rect width="395.5199890136719" height="247.1999969482422" fill="url(#26311c59-3ab5-4623-a663-c4e4583786af)" mask="url(#c763e837-7884-4206-86cb-ba8bc0b7bc62)" data-fill-palette-color="secondary"></rect><mask id="b8c9bc7c-44d9-4d82-9978-8c4222075ed7"><g id="SvgjsG17897"><svg viewBox="0 0 395.52 247.2" height="247.2" width="395.52"><g><svg></svg></g><g><svg viewBox="0 0 395.52 247.2" height="247.2" width="395.52"><mask id="SvgjsMask17896"><g transform="matrix(1,0,0,1,39.55199999999999,60.372422411014796)"><svg viewBox="0 0 316.416 126.4551551779704" height="126.4551551779704" width="316.416"><g><svg viewBox="0 0 316.416 126.4551551779704" height="126.4551551779704" width="316.416"><g><svg viewBox="0 0 316.416 126.4551551779704" height="126.4551551779704" width="316.416"><g><svg viewBox="0 0 316.416 126.4551551779704" height="126.4551551779704" width="316.416"><g id="SvgjsG17895"><svg viewBox="0 0 316.416 126.4551551779704" height="126.4551551779704" width="316.416" id="SvgjsSvg17894"><g><svg viewBox="0 0 316.416 83.37664094864489" height="83.37664094864489" width="316.416"><g transform="matrix(1,0,0,1,0,0)"><svg width="316.416" viewBox="-3.709999978542328 -36.66999816894531 153.8400115966797 41.279998779296875" height="83.37664094864489" data-palette-color="url(#01384b9b-c4e0-412e-a36a-78853dafd57f)"></svg></g></svg></g><g transform="matrix(1,0,0,1,3.5,99.63893646555158)"><svg viewBox="0 0 309.416 26.81621871241882" height="26.81621871241882" width="309.416"><g transform="matrix(1,0,0,1,0,0)"><svg width="309.416" viewBox="-3.9499999955296516 -41.099998474121094 624.6500244140625 55.04999923706055" height="26.81621871241882" data-palette-color="url(#26311c59-3ab5-4623-a663-c4e4583786af)"></svg></g></svg></g></svg></g></svg></g></svg></g></svg></g></svg></g></mask><g transform="matrix(1,0,0,1,39.55199999999999,60.372422411014796)"><svg viewBox="0 0 316.416 126.4551551779704" height="126.4551551779704" width="316.416"><g><svg viewBox="0 0 316.416 126.4551551779704" height="126.4551551779704" width="316.416"><g><svg viewBox="0 0 316.416 126.4551551779704" height="126.4551551779704" width="316.416"><g><svg viewBox="0 0 316.416 126.4551551779704" height="126.4551551779704" width="316.416"><g id="SvgjsG17891"><svg viewBox="0 0 316.416 126.4551551779704" height="126.4551551779704" width="316.416" id="SvgjsSvg17890"><g><svg viewBox="0 0 316.416 83.37664094864489" height="83.37664094864489" width="316.416"><g transform="matrix(1,0,0,1,0,0)"><svg width="316.416" viewBox="-3.709999978542328 -36.66999816894531 153.8400115966797 41.279998779296875" height="83.37664094864489" data-palette-color="url(#01384b9b-c4e0-412e-a36a-78853dafd57f)"></svg></g></svg></g><g transform="matrix(1,0,0,1,3.5,99.63893646555158)"><svg viewBox="0 0 309.416 26.81621871241882" height="26.81621871241882" width="309.416"><g transform="matrix(1,0,0,1,0,0)"><svg width="309.416" viewBox="-3.9499999955296516 -41.099998474121094 624.6500244140625 55.04999923706055" height="26.81621871241882" data-palette-color="url(#26311c59-3ab5-4623-a663-c4e4583786af)"></svg></g></svg></g></svg></g></svg></g></svg></g></svg></g></svg></g><g mask="url(#d62d46cd-2a39-4cc9-b83d-e2643ce417a7)"><g transform="matrix(2.8753518629258203, 0, 0, 2.8753518629258203, 71.04578899282514, 1)"><svg xmlns="http://www.w3.org/2000/svg" xmlns:xlink="http://www.w3.org/1999/xlink" version="1.1" x="0" y="0" viewBox="6.108383655548096 6.863254547119141 88.13822937011719 85.27651977539062" enable-background="new 0 0 100 100" xml:space="preserve" height="85.27651977539062" width="88.13822937011719" class="icon-none" data-fill-palette-color="accent" id="SvgjsSvg17889"><g fill="white"><path d="M90.012 8.518L89.799 8.16c0.754-0.475 0.68-0.716 0.68-0.716s-0.371-1.008-1.446-0.368c-1.07 0.645-0.359 1.449-0.359 1.449s0.179 0.177 0.943-0.256l0.198 0.336c-0.08 0.042-0.977 0.521-2.272 1.21l-0.194-0.33c0.752-0.474 0.68-0.716 0.68-0.716s-0.373-1.007-1.449-0.368c-1.07 0.646-0.357 1.449-0.357 1.449s0.176 0.179 0.941-0.255l0.193 0.321c-0.656 0.35-1.4 0.745-2.185 1.163l-0.223-0.371c0.754-0.475 0.682-0.717 0.682-0.717s-0.373-1.007-1.448-0.368c-1.07 0.645-0.359 1.449-0.359 1.449S84 11.25 84.766 10.817l0.217 0.364c-0.719 0.382-1.465 0.78-2.203 1.174l-0.191-0.321c0.752-0.476 0.68-0.717 0.68-0.717s-0.373-1.008-1.447-0.369c-1.071 0.646-0.36 1.449-0.36 1.449s0.181 0.179 0.942-0.255l0.188 0.313c-0.772 0.412-1.526 0.814-2.229 1.188l-0.184-0.309c0.756-0.474 0.682-0.717 0.682-0.717s-0.373-1.007-1.446-0.367c-1.07 0.645-0.36 1.449-0.36 1.449s0.178 0.177 0.944-0.256l0.178 0.3c-0.889 0.473-1.668 0.891-2.25 1.203l-0.163-0.276c0.752-0.474 0.68-0.716 0.68-0.716s-0.371-1.008-1.447-0.368c-1.072 0.646-0.361 1.449-0.361 1.449s0.178 0.179 0.945-0.256l0.158 0.27c-0.328 0.176-0.58 0.313-0.728 0.393-1.452 0.796-1.834 1.106-1.557 1.833 0.276 0.726 0.006 1.458 0.004 1.459-0.019 0.017-0.039 0.038-0.067 0.065-0.412 0.398-1.847 1.791-2.601 2.522-1.916 1.858-3.83 3.713-5.744 5.57-2.426 2.354-4.854 4.708-7.28 7.063-2.482 2.406-4.964 4.812-7.443 7.219-2.711 2.632-5.445 5.242-8.146 7.884-0.792 0.777-1.509 1.578-2.731 1.3-1.091-0.248-1.995-1.252-2.408-2.262-0.864-2.111-0.087-4.4 1.277-6.1 0.654-0.814 2.151-2.124 1.152-3.208-1.601-1.735-4.646 0.403-5.986 1.482-3.238 2.61-4.645 6.029-6.514 9.59-0.941 1.793-2.085 3.495-3.719 4.729-1.622 1.227-3.445 1.68-5.325 2.33-1.157 0.4-2.299 0.843-3.415 1.35-4.167 1.893-8.674 4.944-10.038 9.568-0.666 2.254-0.365 4.602 0.518 6.752 0.452 1.102 1.004 2.158 1.633 3.169 2.504 4.021 6.03 7.591 9.594 10.687 1.744 1.516 3.716 2.902 5.998 3.433 2.748 0.64 5.819 0.075 8.257-1.304 4.857-2.748 7.449-11.631 7.449-11.631 0.331-1.062 0.659-2.125 1.084-3.151 0.761-1.835 1.89-3.381 3.572-4.47 0.83-0.536 1.724-0.965 2.616-1.385 1.091-0.513 2.185-0.951 3.218-1.578 1.552-0.942 2.993-2.17 3.803-3.828 0.233-0.481 0.535-1.123 0.554-1.68 0.024-0.802-0.316-1.828-1.226-1.978-0.925-0.151-1.677 0.542-2.418 0.978-0.938 0.551-1.959 1.016-3.05 1.148-0.927 0.113-1.769-0.264-2.491-0.821-0.949-0.733-2.045-2.18-2.075-3.456-0.002-0.117-0.037-0.197 0.058-0.296 0.031-0.032 31.75-32.822 34.772-35.844 3.025-3.025 5.549-1.503 5.549-1.503 1.695-1.659 3.891-5.41 4.787-6.793 0.9-1.382 2.18 0.242 3.732-0.587 1.557-0.83 2.594-3.111 1.16-4.685C92.367 7.702 90.578 8.284 90.012 8.518zM39.562 52.711c0.634 2.104 1.523 4.114 2.426 6.113 0.977 2.164 1.793 4.693 4.342 5.422 0.582 0.165 1.287 0.279 1.893 0.234 1.5-0.107 2.794-0.832 4.039-1.621 0.273-0.174 0.856-0.709 1.129-0.312 0.272 0.395-0.068 1.227-0.246 1.584-0.412 0.834-1.125 1.508-1.836 2.09-2.394 1.959-5.368 2.723-7.919 4.389-1.292 0.844-2.149 2.062-2.807 3.438-1.059 2.212-1.905 4.525-2.801 6.807-0.133 0.34-0.267 0.681-0.402 1.021-0.433 1.096-0.893 2.146-1.466 3.178-0.479 0.862-1.409 2.461-2.663 2.19-0.46-0.101-0.777-0.562-0.967-0.962-0.458-0.963-0.432-2.133-0.441-3.174-0.011-1.269-0.348-2.601-0.88-3.748-0.471-1.016-1.133-1.898-1.878-2.717-0.734-0.809-1.549-1.554-2.335-2.301-1.191-1.132-2.299-2.355-3.537-3.438-0.816-0.719-1.987-1.611-2.306-2.711-0.793-2.731 1.656-5.295 3.748-6.607 0.668-0.42 1.386-0.771 2.111-1.086 2.567-1.109 5.087-2.314 7.129-4.273 1.232-1.184 2.043-2.559 2.991-3.955 0.268-0.393 0.568-0.847 1.031-1.022C38.951 50.85 39.327 51.936 39.562 52.711z" fill="white"></path><g fill="white"><circle cx="33.902" cy="84.067" r="1.4" fill="white"></circle><circle cx="33.463" cy="79.112" r="1.4" fill="white"></circle><circle cx="32.081" cy="74.273" r="1.4" fill="white"></circle></g><path d="M35.811 65.986c0.406 0.404 0.406 1.062 0 1.469l0 0c-0.406 0.404-1.064 0.404-1.47 0l-4.077-4.078c-0.406-0.406-0.406-1.064 0-1.47l0 0c0.405-0.406 1.063-0.406 1.469 0L35.811 65.986z" fill="white"></path><path d="M31.011 70.988c0.324 0.474 0.203 1.121-0.271 1.443l0 0c-0.473 0.323-1.121 0.201-1.444-0.271L26.04 67.4c-0.324-0.475-0.203-1.121 0.271-1.443l0 0c0.474-0.325 1.121-0.203 1.445 0.271L31.011 70.988z" fill="white"></path><path d="M40.615 61.182c0.406 0.404 0.406 1.062 0 1.469l0 0c-0.405 0.404-1.063 0.406-1.469 0l-4.078-4.077c-0.406-0.406-0.406-1.064 0-1.47l0 0c0.406-0.406 1.063-0.406 1.469 0L40.615 61.182z" fill="white"></path></g></svg></g></g></svg></g><defs><mask></mask></defs><mask><g id="SvgjsG17888"><svg viewBox="0 0 395.52 247.2" height="247.2" width="395.52"><g><svg></svg></g><g><svg viewBox="0 0 395.52 247.2" height="247.2" width="395.52"><mask id="SvgjsMask17887"><g transform="matrix(1,0,0,1,39.55199999999999,60.372422411014796)"><svg viewBox="0 0 316.416 126.4551551779704" height="126.4551551779704" width="316.416"><g><svg viewBox="0 0 316.416 126.4551551779704" height="126.4551551779704" width="316.416"><g><svg viewBox="0 0 316.416 126.4551551779704" height="126.4551551779704" width="316.416"><g><svg viewBox="0 0 316.416 126.4551551779704" height="126.4551551779704" width="316.416"><g id="SvgjsG17886"><svg viewBox="0 0 316.416 126.4551551779704" height="126.4551551779704" width="316.416" id="SvgjsSvg17885"><g><svg viewBox="0 0 316.416 83.37664094864489" height="83.37664094864489" width="316.416"><g transform="matrix(1,0,0,1,0,0)"><svg width="316.416" viewBox="-3.709999978542328 -36.66999816894531 153.8400115966797 41.279998779296875" height="83.37664094864489" data-palette-color="url(#01384b9b-c4e0-412e-a36a-78853dafd57f)"></svg></g></svg></g><g transform="matrix(1,0,0,1,3.5,99.63893646555158)"><svg viewBox="0 0 309.416 26.81621871241882" height="26.81621871241882" width="309.416"><g transform="matrix(1,0,0,1,0,0)"><svg width="309.416" viewBox="-3.9499999955296516 -41.099998474121094 624.6500244140625 55.04999923706055" height="26.81621871241882" data-palette-color="url(#26311c59-3ab5-4623-a663-c4e4583786af)"></svg></g></svg></g></svg></g></svg></g></svg></g></svg></g></svg></g></mask><g transform="matrix(1,0,0,1,39.55199999999999,60.372422411014796)"><svg viewBox="0 0 316.416 126.4551551779704" height="126.4551551779704" width="316.416"><g><svg viewBox="0 0 316.416 126.4551551779704" height="126.4551551779704" width="316.416"><g><svg viewBox="0 0 316.416 126.4551551779704" height="126.4551551779704" width="316.416"><g><svg viewBox="0 0 316.416 126.4551551779704" height="126.4551551779704" width="316.416"><g id="SvgjsG17884"><svg viewBox="0 0 316.416 126.4551551779704" height="126.4551551779704" width="316.416" id="SvgjsSvg17883"><g><svg viewBox="0 0 316.416 83.37664094864489" height="83.37664094864489" width="316.416"><g transform="matrix(1,0,0,1,0,0)"><svg width="316.416" viewBox="-3.709999978542328 -36.66999816894531 153.8400115966797 41.279998779296875" height="83.37664094864489" data-palette-color="url(#01384b9b-c4e0-412e-a36a-78853dafd57f)"></svg></g></svg></g><g transform="matrix(1,0,0,1,3.5,99.63893646555158)"><svg viewBox="0 0 309.416 26.81621871241882" height="26.81621871241882" width="309.416"><g transform="matrix(1,0,0,1,0,0)"><svg width="309.416" viewBox="-3.9499999955296516 -41.099998474121094 624.6500244140625 55.04999923706055" height="26.81621871241882" data-palette-color="url(#26311c59-3ab5-4623-a663-c4e4583786af)"></svg></g></svg></g></svg></g></svg></g></svg></g></svg></g></svg></g><g mask="url(#d62d46cd-2a39-4cc9-b83d-e2643ce417a7)"><g transform="matrix(2.8753518629258203, 0, 0, 2.8753518629258203, 71.04578899282514, 1)"><svg xmlns="http://www.w3.org/2000/svg" xmlns:xlink="http://www.w3.org/1999/xlink" version="1.1" x="0" y="0" viewBox="6.108383655548096 6.863254547119141 88.13822937011719 85.27651977539062" enable-background="new 0 0 100 100" xml:space="preserve" height="85.27651977539062" width="88.13822937011719" class="icon-none" data-fill-palette-color="accent" id="SvgjsSvg17881"></svg></g></g></svg></g><defs><mask></mask></defs></svg></g></mask><mask><g id="SvgjsG17880"><svg viewBox="0 0 395.52 247.2" height="247.2" width="395.52"><g><svg></svg></g><g><svg viewBox="0 0 395.52 247.2" height="247.2" width="395.52"><mask id="SvgjsMask17879"><g transform="matrix(1,0,0,1,39.55199999999999,60.372422411014796)"><svg viewBox="0 0 316.416 126.4551551779704" height="126.4551551779704" width="316.416"><g><svg viewBox="0 0 316.416 126.4551551779704" height="126.4551551779704" width="316.416"><g><svg viewBox="0 0 316.416 126.4551551779704" height="126.4551551779704" width="316.416"><g><svg viewBox="0 0 316.416 126.4551551779704" height="126.4551551779704" width="316.416"><g id="SvgjsG17878"><svg viewBox="0 0 316.416 126.4551551779704" height="126.4551551779704" width="316.416" id="SvgjsSvg17877"><g><svg viewBox="0 0 316.416 83.37664094864489" height="83.37664094864489" width="316.416"><g transform="matrix(1,0,0,1,0,0)"><svg width="316.416" viewBox="-3.709999978542328 -36.66999816894531 153.8400115966797 41.279998779296875" height="83.37664094864489" data-palette-color="url(#01384b9b-c4e0-412e-a36a-78853dafd57f)"></svg></g></svg></g><g transform="matrix(1,0,0,1,3.5,99.63893646555158)"><svg viewBox="0 0 309.416 26.81621871241882" height="26.81621871241882" width="309.416"><g transform="matrix(1,0,0,1,0,0)"><svg width="309.416" viewBox="-3.9499999955296516 -41.099998474121094 624.6500244140625 55.04999923706055" height="26.81621871241882" data-palette-color="url(#26311c59-3ab5-4623-a663-c4e4583786af)"></svg></g></svg></g></svg></g></svg></g></svg></g></svg></g></svg></g></mask><g transform="matrix(1,0,0,1,39.55199999999999,60.372422411014796)"><svg viewBox="0 0 316.416 126.4551551779704" height="126.4551551779704" width="316.416"><g><svg viewBox="0 0 316.416 126.4551551779704" height="126.4551551779704" width="316.416"><g><svg viewBox="0 0 316.416 126.4551551779704" height="126.4551551779704" width="316.416"><g><svg viewBox="0 0 316.416 126.4551551779704" height="126.4551551779704" width="316.416"><g id="SvgjsG17876"><svg viewBox="0 0 316.416 126.4551551779704" height="126.4551551779704" width="316.416" id="SvgjsSvg17875"><g><svg viewBox="0 0 316.416 83.37664094864489" height="83.37664094864489" width="316.416"><g transform="matrix(1,0,0,1,0,0)"><svg width="316.416" viewBox="-3.709999978542328 -36.66999816894531 153.8400115966797 41.279998779296875" height="83.37664094864489" data-palette-color="url(#01384b9b-c4e0-412e-a36a-78853dafd57f)"></svg></g></svg></g><g transform="matrix(1,0,0,1,3.5,99.63893646555158)"><svg viewBox="0 0 309.416 26.81621871241882" height="26.81621871241882" width="309.416"><g transform="matrix(1,0,0,1,0,0)"><svg width="309.416" viewBox="-3.9499999955296516 -41.099998474121094 624.6500244140625 55.04999923706055" height="26.81621871241882" data-palette-color="url(#26311c59-3ab5-4623-a663-c4e4583786af)"></svg></g></svg></g></svg></g></svg></g></svg></g></svg></g></svg></g><g mask="url(#d62d46cd-2a39-4cc9-b83d-e2643ce417a7)"><g transform="matrix(2.8753518629258203, 0, 0, 2.8753518629258203, 71.04578899282514, 1)"><svg xmlns="http://www.w3.org/2000/svg" xmlns:xlink="http://www.w3.org/1999/xlink" version="1.1" x="0" y="0" viewBox="6.108383655548096 6.863254547119141 88.13822937011719 85.27651977539062" enable-background="new 0 0 100 100" xml:space="preserve" height="85.27651977539062" width="88.13822937011719" class="icon-none" data-fill-palette-color="accent" id="SvgjsSvg17873"></svg></g></g></svg></g><defs><mask></mask></defs><mask><g id="SvgjsG17872"><svg viewBox="0 0 395.52 247.2" height="247.2" width="395.52"><g><svg></svg></g><g><svg viewBox="0 0 395.52 247.2" height="247.2" width="395.52"><mask id="SvgjsMask17871"><g transform="matrix(1,0,0,1,39.55199999999999,60.372422411014796)"><svg viewBox="0 0 316.416 126.4551551779704" height="126.4551551779704" width="316.416"><g><svg viewBox="0 0 316.416 126.4551551779704" height="126.4551551779704" width="316.416"><g><svg viewBox="0 0 316.416 126.4551551779704" height="126.4551551779704" width="316.416"><g><svg viewBox="0 0 316.416 126.4551551779704" height="126.4551551779704" width="316.416"><g id="SvgjsG17870"><svg viewBox="0 0 316.416 126.4551551779704" height="126.4551551779704" width="316.416" id="SvgjsSvg17869"><g><svg viewBox="0 0 316.416 83.37664094864489" height="83.37664094864489" width="316.416"><g transform="matrix(1,0,0,1,0,0)"><svg width="316.416" viewBox="-3.709999978542328 -36.66999816894531 153.8400115966797 41.279998779296875" height="83.37664094864489" data-palette-color="url(#01384b9b-c4e0-412e-a36a-78853dafd57f)"></svg></g></svg></g><g transform="matrix(1,0,0,1,3.5,99.63893646555158)"><svg viewBox="0 0 309.416 26.81621871241882" height="26.81621871241882" width="309.416"><g transform="matrix(1,0,0,1,0,0)"><svg width="309.416" viewBox="-3.9499999955296516 -41.099998474121094 624.6500244140625 55.04999923706055" height="26.81621871241882" data-palette-color="url(#26311c59-3ab5-4623-a663-c4e4583786af)"></svg></g></svg></g></svg></g></svg></g></svg></g></svg></g></svg></g></mask><g transform="matrix(1,0,0,1,39.55199999999999,60.372422411014796)"><svg viewBox="0 0 316.416 126.4551551779704" height="126.4551551779704" width="316.416"><g><svg viewBox="0 0 316.416 126.4551551779704" height="126.4551551779704" width="316.416"><g><svg viewBox="0 0 316.416 126.4551551779704" height="126.4551551779704" width="316.416"><g><svg viewBox="0 0 316.416 126.4551551779704" height="126.4551551779704" width="316.416"><g id="SvgjsG17868"><svg viewBox="0 0 316.416 126.4551551779704" height="126.4551551779704" width="316.416" id="SvgjsSvg17867"><g><svg viewBox="0 0 316.416 83.37664094864489" height="83.37664094864489" width="316.416"><g transform="matrix(1,0,0,1,0,0)"><svg width="316.416" viewBox="-3.709999978542328 -36.66999816894531 153.8400115966797 41.279998779296875" height="83.37664094864489" data-palette-color="url(#01384b9b-c4e0-412e-a36a-78853dafd57f)"></svg></g></svg></g><g transform="matrix(1,0,0,1,3.5,99.63893646555158)"><svg viewBox="0 0 309.416 26.81621871241882" height="26.81621871241882" width="309.416"><g transform="matrix(1,0,0,1,0,0)"><svg width="309.416" viewBox="-3.9499999955296516 -41.099998474121094 624.6500244140625 55.04999923706055" height="26.81621871241882" data-palette-color="url(#26311c59-3ab5-4623-a663-c4e4583786af)"></svg></g></svg></g></svg></g></svg></g></svg></g></svg></g></svg></g><g mask="url(#d62d46cd-2a39-4cc9-b83d-e2643ce417a7)"><g transform="matrix(2.8753518629258203, 0, 0, 2.8753518629258203, 71.04578899282514, 1)"><svg xmlns="http://www.w3.org/2000/svg" xmlns:xlink="http://www.w3.org/1999/xlink" version="1.1" x="0" y="0" viewBox="6.108383655548096 6.863254547119141 88.13822937011719 85.27651977539062" enable-background="new 0 0 100 100" xml:space="preserve" height="85.27651977539062" width="88.13822937011719" class="icon-none" data-fill-palette-color="accent" id="SvgjsSvg17866"></svg></g></g></svg></g><defs><mask></mask></defs></svg></g></mask></svg></g></mask></svg></g></mask><linearGradient x1="0.054" x2="0.941" y1="0.5" y2="0.5" id="9bdfd4c0-9bd5-4c75-aef3-51e9bb4050f4"><stop stop-color="#0f3054" offset="0"></stop><stop stop-color="#3b8dcb" offset="0.498"></stop><stop stop-color="#0f3054" offset="1"></stop></linearGradient><rect width="395.5199890136719" height="247.1999969482422" fill="url(#9bdfd4c0-9bd5-4c75-aef3-51e9bb4050f4)" mask="url(#b8c9bc7c-44d9-4d82-9978-8c4222075ed7)" data-fill-palette-color="accent"></rect></svg><rect width="395.52" height="247.2" fill="none" stroke="none" visibility="hidden"></rect></g></svg></g></svg>